<?xml version="1.0" encoding="UTF-8" standalone="no"?>
<svg
   version="1.0"
   width="300pt"
   height="428pt"
   viewBox="0 0 300 428"
   preserveAspectRatio="xMidYMid"
   id="svg11"
   xmlns="http://www.w3.org/2000/svg"
   xmlns:svg="http://www.w3.org/2000/svg">
  <defs
     id="defs11" />
  <metadata
     id="metadata1">
Created by potrace 1.10, written by Peter Selinger 2001-2011
</metadata>
  <g
     transform="matrix(0.10499109,0,0,-0.1146306,-7.386817,467.90041)"
     fill="#000000"
     stroke="none"
     id="g11">
    <path
       d="m 757,4059 c -172,-33 -294,-153 -356,-351 -6,-20 -11,-40 -10,-45 1,-4 1,-75 0,-156 l -1,-148 -30,-10 -30,-11 v -117 -117 l 30,-11 30,-11 v -132 -131 l -30,-10 -30,-11 v -114 -113 l 30,-16 29,-15 3,-903 3,-902 29,-65 c 31,-72 116,-175 186,-226 25,-18 79,-45 120,-59 l 75,-25 h 678 c 660,0 679,1 740,21 162,54 277,167 330,323 15,45 17,133 17,943 v 892 l 30,16 30,16 v 113 114 l -30,11 -30,10 v 131 132 l 30,11 30,11 v 117 117 l -29,10 -29,10 -4,179 c -5,198 -13,234 -81,336 -68,102 -161,166 -272,186 -73,14 -1387,13 -1458,0 z m 1458,-38 c 111,-26 191,-85 252,-185 54,-88 73,-175 73,-333 0,-128 1,-136 25,-167 22,-29 25,-43 25,-114 0,-73 -3,-84 -25,-108 -21,-23 -25,-38 -27,-98 -1,-39 -3,-91 -4,-116 -2,-52 8,-82 36,-112 17,-18 20,-35 20,-104 0,-74 -2,-84 -28,-117 l -28,-35 2,-859 c 2,-564 -1,-877 -8,-913 -29,-152 -152,-289 -307,-341 -55,-19 -89,-19 -752,-17 l -694,3 -62,27 c -131,56 -242,183 -274,314 -9,36 -13,278 -13,920 l -1,871 -27,36 c -25,32 -28,44 -28,112 0,68 3,80 28,112 26,35 27,40 25,156 -1,109 -4,122 -27,158 -22,33 -26,50 -26,115 0,67 3,80 25,106 14,16 26,42 26,56 1,15 2,77 3,137 3,140 11,185 49,265 36,75 124,170 183,195 78,34 101,38 244,44 256,11 1260,4 1315,-8 z"
       id="path1" />
    <path
       d="m 1458,3920 c -265,-5 -267,-5 -292,-29 -33,-31 -34,-76 -3,-115 21,-26 31,-29 110,-36 48,-5 180,-6 294,-3 224,5 243,10 260,63 18,53 -13,103 -73,118 -16,4 -149,5 -296,2 z m 324,-47 c 22,-20 23,-61 1,-85 -15,-17 -37,-18 -294,-18 -273,0 -279,0 -299,22 -25,28 -26,52 0,78 19,19 33,20 297,20 243,0 279,-2 295,-17 z"
       id="path2" />
    <path
       d="m 2020,3907 c -57,-29 -63,-96 -13,-143 33,-31 64,-30 102,1 50,43 49,76 -2,133 -23,25 -50,28 -87,9 z m 75,-43 c 25,-27 24,-45 -7,-76 -25,-25 -43,-23 -67,8 -26,33 -26,42 1,71 28,30 43,29 73,-3 z"
       id="path3" />
    <path
       d="m 623,3601 c -45,-25 -68,-44 -86,-72 -16,-24 -17,-116 -17,-1209 V 1137 l 23,-40 c 12,-22 38,-53 57,-68 l 35,-28 315,-1 c 173,-1 556,-1 851,-1 l 536,1 33,23 c 19,12 43,37 53,55 19,33 20,61 19,1228 -1,895 -4,1200 -13,1217 -7,12 -27,37 -45,55 -40,39 69,35 -936,37 -706,1 -800,0 -825,-14 z m 1744,-58 35,-38 -1,-1200 V 1105 l -28,-33 -28,-33 -852,-1 c -719,-1 -855,1 -869,13 -10,8 -30,34 -46,58 l -28,45 v 1171 1172 l 35,35 c 18,20 40,38 47,41 7,3 393,6 857,6 l 844,1 z"
       id="path4" />
    <path
       d="m 1364,3300 c -80,-30 -129,-69 -156,-123 -50,-101 -50,-100 -43,-296 l 7,-186 -41,-80 c -22,-44 -59,-105 -83,-135 -41,-53 -148,-225 -148,-237 0,-3 -11,-29 -25,-57 -43,-91 -64,-245 -41,-313 10,-32 24,-29 62,16 18,21 47,44 64,51 17,7 29,18 26,24 -25,60 -29,88 -17,144 18,79 70,208 92,228 27,25 24,5 -17,-86 -62,-141 -58,-273 8,-298 17,-6 33,-11 34,-9 1,1 -2,31 -8,67 -16,116 6,218 96,430 20,46 36,91 36,100 0,9 9,33 20,55 12,23 20,59 20,86 0,29 6,51 15,59 13,11 13,16 -5,45 -29,47 -36,114 -16,153 19,37 52,62 82,62 31,0 84,-63 84,-100 0,-20 7,-33 21,-41 25,-13 33,-6 49,46 34,110 135,128 197,36 28,-42 29,-85 3,-136 -11,-22 -20,-43 -20,-48 0,-5 9,-20 20,-34 12,-15 20,-41 20,-63 0,-51 18,-104 90,-259 79,-170 106,-288 93,-403 -14,-126 3,-136 56,-31 19,39 31,78 31,102 0,55 -41,179 -79,241 -18,29 -29,55 -26,59 13,12 65,-63 96,-139 56,-133 50,-250 -18,-331 -14,-16 -23,-32 -20,-35 3,-3 28,7 56,21 57,30 90,28 129,-8 15,-14 25,-18 33,-10 18,18 22,144 6,219 -14,67 -101,264 -116,264 -3,0 -15,17 -26,37 -11,21 -28,48 -38,59 -59,70 -133,200 -144,254 -3,14 -7,97 -9,185 -4,193 -19,255 -77,322 -67,76 -108,95 -207,100 -47,2 -94,5 -105,6 -11,2 -38,-4 -61,-13 z m 181,-31 c 4,-6 -2,-21 -14,-33 -49,-52 -13,-114 103,-175 l 60,-31 28,27 c 23,22 31,25 38,14 8,-13 15,-115 19,-283 1,-38 10,-95 20,-128 18,-58 82,-169 125,-218 21,-24 35,-45 109,-174 47,-80 79,-177 90,-274 7,-62 -2,-70 -58,-54 -41,11 -46,16 -39,34 25,77 8,191 -46,301 -36,74 -70,108 -109,108 -27,0 -32,7 -75,98 -28,57 -51,123 -57,161 -6,35 -16,75 -24,90 -11,23 -11,34 2,70 19,55 13,136 -13,171 -10,15 -38,36 -62,48 -60,30 -104,21 -157,-31 l -41,-40 -36,36 c -27,28 -46,37 -80,41 -39,5 -49,2 -80,-26 -20,-17 -38,-31 -42,-31 -14,0 -5,93 15,145 29,77 87,129 179,159 29,9 139,6 145,-5 z m 119,-90 c 37,-33 46,-47 46,-73 0,-18 -3,-35 -6,-38 -5,-6 -83,41 -136,82 -27,20 -36,49 -21,63 3,4 21,7 38,7 23,0 45,-11 79,-41 z m -457,-536 c -29,-90 -81,-231 -93,-255 -11,-21 -20,-27 -33,-23 -25,8 -62,-25 -89,-78 -31,-63 -62,-190 -62,-258 0,-50 -3,-60 -26,-78 -15,-12 -31,-21 -36,-21 -8,0 -5,85 6,138 20,98 99,247 221,418 28,39 61,94 73,122 13,29 27,52 33,52 6,0 9,-8 6,-17 z"
       id="path5" />
    <path
       d="m 1292,2917 c -26,-27 -28,-54 -8,-102 l 15,-35 50,37 c 28,21 51,43 51,49 0,17 -56,74 -72,74 -8,0 -24,-10 -36,-23 z m 58,-47 c 0,-10 -31,-22 -38,-16 -2,3 -2,12 1,20 6,15 37,12 37,-4 z"
       id="path6" />
    <path
       d="m 1544,2925 c -20,-13 -51,-72 -43,-79 15,-11 122,-67 124,-64 30,37 32,90 3,122 -30,32 -59,39 -84,21 z m 56,-54 c 5,-11 6,-22 2,-25 -14,-8 -46,20 -38,32 11,17 24,15 36,-7 z"
       id="path7" />
    <path
       d="m 1357,2790 c -77,-52 -84,-80 -34,-136 46,-53 105,-94 125,-87 25,9 180,112 188,124 3,6 -1,18 -10,27 -13,14 -16,14 -16,2 0,-10 -28,-24 -80,-40 -88,-28 -102,-21 -49,24 23,19 42,26 75,26 24,0 44,4 44,8 0,27 -84,71 -148,78 -41,5 -53,2 -95,-26 z m 121,-19 c 10,-6 4,-17 -22,-43 -39,-39 -44,-59 -21,-78 17,-14 11,-30 -10,-30 -22,0 -85,71 -85,95 0,38 102,80 138,56 z"
       id="path8" />
    <path
       d="m 995,1912 c -11,-2 -40,-23 -65,-48 -34,-32 -62,-48 -112,-64 -97,-30 -117,-64 -78,-140 11,-22 20,-51 20,-65 0,-14 -9,-42 -20,-62 -26,-48 -25,-87 1,-122 18,-24 28,-28 77,-30 61,-2 134,-16 167,-30 112,-50 199,-81 223,-81 49,0 86,18 111,55 20,30 23,43 18,94 -6,72 -14,87 -152,296 -131,199 -140,207 -190,197 z m 52,-64 c 30,-34 231,-342 243,-373 24,-63 0,-147 -44,-159 -42,-11 -69,-5 -176,39 -70,29 -141,50 -201,60 -114,18 -129,36 -93,107 12,24 15,46 10,92 -16,140 -17,137 61,156 26,6 60,27 90,55 54,50 80,55 110,23 z"
       id="path9" />
    <path
       d="m 1730,1873 c -13,-17 -19,-35 -16,-48 3,-11 9,-49 12,-85 9,-91 -7,-141 -64,-200 -57,-59 -131,-84 -226,-78 l -61,4 v -58 -58 h 146 145 l 40,-33 c 51,-44 76,-57 111,-57 35,0 93,31 130,68 62,63 194,145 226,141 29,-4 48,2 72,24 46,40 41,59 -35,133 -66,63 -102,124 -98,164 7,79 -26,92 -114,45 -34,-19 -73,-35 -85,-35 -13,0 -36,18 -63,50 -50,60 -86,67 -120,23 z m 105,-63 c 32,-33 46,-40 77,-40 22,0 56,9 78,20 59,30 77,27 85,-17 10,-57 39,-105 99,-167 31,-31 56,-60 56,-65 0,-10 -34,-27 -95,-47 -50,-16 -150,-81 -215,-140 -19,-18 -54,-37 -76,-44 -41,-12 -43,-12 -111,33 l -70,46 -117,3 c -121,3 -156,18 -68,29 133,17 215,69 262,166 16,35 20,63 20,153 0,99 2,110 18,110 10,0 36,-18 57,-40 z"
       id="path10" />
    <path
       d="m 1233,800 c -64,-39 -69,-107 -12,-159 37,-34 63,-37 326,-36 h 162 l 30,29 c 42,40 49,85 22,130 -12,19 -35,39 -53,45 -18,7 -114,11 -237,11 -186,0 -209,-2 -238,-20 z m 496,-49 c 27,-37 26,-43 -5,-80 l -26,-31 h -215 -215 l -29,29 c -35,35 -36,57 -7,88 21,23 24,23 249,23 h 228 z"
       id="path11" />
  </g>
  <path
     style="fill:#0055d4;stroke-width:0.597555"
     d="M 121.85571,5.5880731 C 104.79793,5.9631624 87.56427,4.9587882 70.653879,7.6339987 57.990081,9.9629325 49.296349,20.775823 43.236374,31.342462 c -7.20723,13.473972 -5.685151,29.303194 -6.652255,44.03052 0.376576,4.54446 -0.924234,8.885453 -3.808475,12.465075 -2.469045,3.684938 -0.618931,8.587515 -1.176592,12.806783 -0.280861,3.72626 -0.167325,7.37066 2.289314,10.4162 2.939929,3.61014 2.647251,8.04987 2.586037,12.4302 -0.119781,6.64769 0.611823,13.52723 -0.03959,20.03007 -2.745919,4.0805 -5.485634,8.49553 -4.986915,13.63818 -0.584561,6.41304 0.04374,13.34484 4.520758,18.36895 2.550512,3.50202 0.652358,8.40528 1.256234,12.52046 0.332966,63.25008 -0.03441,126.50879 0.975242,189.75248 0.521481,12.25085 7.755654,23.30903 16.399128,31.57749 5.567625,5.11338 12.099921,9.49788 19.19526,11.97898 48.96444,0.379 97.95228,1.20408 146.90636,-0.12941 7.53853,-1.30069 14.33513,-5.63152 20.23634,-10.35218 8.2501,-7.49853 14.77301,-17.55253 16.70942,-28.63461 1.82547,-23.12585 1.06171,-46.37347 1.37797,-69.55231 0.0611,-45.07997 -0.005,-90.16001 -0.007,-135.24001 3.33574,-3.98349 6.09174,-8.74866 5.46086,-14.15225 -0.0966,-5.66979 0.88044,-11.94842 -2.98094,-16.72234 -4.17637,-6.78105 -1.98454,-15.10093 -2.32936,-22.58324 -0.0239,-5.71 0.79287,-11.61614 4.95667,-15.91457 0.056,-5.97443 0.74394,-12.184187 0.15857,-18.06886 -2.13041,-4.69113 -5.45014,-9.088312 -4.62545,-14.50854 -0.69979,-15.90572 0.50615,-33.026824 -7.94245,-47.281633 C 245.36254,16.566384 233.53464,6.2986955 219.61761,6.5741354 187.05602,5.2545334 154.43706,5.6852788 121.85571,5.5880731 Z m 44.19922,13.1053619 c 5.53542,0.281508 12.19138,-1.212147 16.14099,3.747557 3.44466,3.202102 2.88321,8.968554 0.81464,12.735392 -4.19567,4.228946 -10.92416,3.257217 -16.34289,3.89111 -15.665,0.369766 -31.45311,0.845654 -47.03412,-0.90917 -7.61069,-1.719831 -9.76839,-14.494194 -2.1778,-17.721242 11.70105,-2.187937 23.79556,-1.283623 35.67589,-1.686421 4.30775,-0.02742 8.61547,-0.05041 12.92329,-0.05723 z m 43.12668,0.18907 c 4.57284,0.548388 7.07641,5.503725 8.36577,9.406824 0.69696,4.156166 -3.02188,7.902142 -6.44006,9.691595 -5.00265,2.613847 -10.15249,-2.881068 -10.78517,-7.534795 -0.70704,-4.343996 0.99717,-9.198783 5.48654,-10.719811 1.07187,-0.483092 2.17505,-0.850533 3.37292,-0.843813 z m -52.87079,34.770233 c 26.63574,0.296199 53.33911,-0.434597 79.92882,1.065562 2.92756,-0.241361 5.43273,1.115276 6.95708,3.628513 3.5109,3.538424 5.38673,8.30665 4.89984,13.308065 0.59394,86.058552 0.48975,172.122952 0.10734,258.182562 -0.20166,6.01554 1.05548,13.02042 -3.80506,17.61747 -3.0206,2.6304 -5.83026,6.91946 -10.33466,5.91708 -58.41514,-0.22051 -116.83569,0.0883 -175.247025,-0.61845 -4.664034,-4.45197 -9.461283,-9.61321 -11.268843,-15.80136 0.274037,-90.56411 -0.05908,-181.13407 0.869985,-271.693806 1.98251,-4.436991 6.000896,-8.16148 10.429202,-10.1631 10.716429,-1.978234 21.777051,-0.902799 32.635453,-1.329046 21.609038,-0.121316 43.218558,-0.131435 64.827868,-0.11349 z M 145.41011,373.88737 c 9.1535,0.27661 18.50746,-0.12527 27.45019,1.9584 5.94532,3.69229 8.15915,12.5808 3.18034,18.01535 -1.81149,2.11726 -3.26679,5.38183 -6.59994,4.32421 -14.16384,-0.23671 -28.39435,0.36039 -42.51628,-0.74121 -8.05987,-1.23525 -13.38674,-12.31506 -7.41692,-18.72378 4.41525,-5.45385 12.09063,-4.10665 18.26135,-4.72804 2.54623,-0.0797 5.09388,-0.10508 7.64126,-0.10493 z"
     id="path44" />
  <path
     style="fill:#0055d4;stroke-width:0.597555"
     d="m 145.0133,91.78305 c -12.69337,0.513067 -23.33656,11.50594 -25.4953,23.7143 -0.91148,4.02246 -1.18738,8.30141 -0.50535,12.33274 3.8637,-2.05504 6.71907,-7.83911 11.99079,-6.71549 5.51977,-0.0576 9.49098,4.42878 12.76106,8.37277 4.99905,-3.23404 9.2334,-10.54223 16.31255,-9.5282 6.76303,1.41158 12.78775,6.84778 13.44383,13.97135 1.61207,6.29036 -1.6644,12.38452 -1.59076,18.58956 3.06277,10.18397 4.30855,20.97728 9.0244,30.67043 1.93955,3.52869 2.72634,8.13809 5.86779,10.81997 3.19841,1.01227 6.57428,2.03038 8.535,5.07571 7.16163,9.72683 10.76454,22.00954 10.87503,34.05597 0.27069,3.6246 -1.7304,7.72593 0.004,11.09328 2.4928,1.2162 6.00871,3.16414 8.6844,1.54291 2.1069,-3.91837 -0.047,-8.72811 -0.27726,-12.89445 -3.1935,-20.15531 -15.24648,-37.17467 -25.69211,-54.1696 -5.1154,-8.78519 -9.08776,-18.47361 -9.05707,-28.78287 -0.90982,-11.40525 -0.5259,-23.01768 -2.57868,-34.28119 -1.88391,-1.39285 -3.67281,1.96968 -5.06355,2.8647 -1.99086,3.67589 -5.10832,-0.55996 -7.67427,-1.46826 -4.88934,-3.33109 -11.28589,-6.56402 -12.9092,-12.73714 -1.24449,-4.16802 2.90798,-7.120137 3.2457,-10.889045 -2.56576,-1.940407 -6.84147,-1.395135 -9.9005,-1.637445 z"
     id="path45" />
  <path
     style="fill:#0055d4;stroke-width:0.597555"
     d="m 118.44778,163.71024 c -3.49344,4.00205 -5.02876,9.51684 -8.02719,13.94247 -10.669983,18.48323 -24.04252,36.67363 -26.843418,58.41537 -0.128737,3.4115 -0.93015,7.25926 0.431828,10.43854 4.271047,-1.19661 6.712935,-6.06581 6.550927,-10.36735 0.303975,-10.93247 2.61021,-21.97716 7.234853,-31.94118 1.808265,-3.69695 4.91976,-7.69214 9.44884,-7.41342 3.61398,-2.33573 3.80506,-7.50813 5.54901,-11.1188 2.07774,-7.1725 5.42604,-14.19483 6.26554,-21.62652 -0.0831,-0.24607 -0.35566,-0.40554 -0.61039,-0.32911 z"
     id="path46" />
  <path
     style="fill:#0055d4;stroke-width:0.597555"
     d="m 98.488035,253.68311 c -6.881708,1.98671 -10.601385,9.61076 -17.699063,11.3909 -2.917395,0.5385 -6.791865,1.79921 -6.365361,5.53905 -0.296818,8.70443 2.215207,17.88337 -1.687626,26.1302 -1.326797,2.67434 -0.308586,6.20164 2.82905,6.91156 8.846175,2.75589 18.138592,3.94567 26.588505,7.98383 7.03279,2.42938 14.48653,8.07265 22.22544,4.9453 4.85827,-3.46557 5.06205,-10.54497 4.20622,-15.91924 -3.58537,-9.947 -10.20943,-18.48007 -15.26566,-27.70111 -4.21641,-6.26376 -7.27007,-13.61416 -12.90345,-18.76813 -0.569573,-0.36426 -1.248068,-0.57561 -1.928055,-0.51236 z"
     id="path47" />
  <path
     style="fill:#0055d4;stroke-width:0.597555"
     d="m 179.21866,255.98464 c -2.58203,1.21486 -1.55669,5.12195 -2.03309,7.40758 -0.38086,9.11938 1.15216,19.23516 -4.61588,27.0592 -5.16658,8.72795 -15.18917,12.99325 -24.85456,14.41485 -1.0675,0.54862 -5.13392,0.0794 -4.46415,2.13112 5.15907,1.90306 11.02814,1.05749 16.4579,1.61673 3.87276,0.24301 8.10038,-0.55113 10.93701,2.72027 4.10232,2.36596 7.6211,6.66858 12.54091,7.16477 7.7197,-1.11986 12.73446,-8.07006 18.81208,-12.28112 6.584,-5.49923 14.30451,-9.21875 22.07258,-12.6633 1.76535,-0.58777 3.6764,-2.66339 1.61294,-4.21907 -6.3804,-7.77512 -13.84673,-15.51372 -15.37188,-25.85475 -0.19527,-2.50761 -2.7231,-4.17793 -4.97534,-2.74035 -5.21125,2.15737 -11.75446,6.59196 -17.07467,2.13346 -3.09698,-2.09265 -5.42547,-5.76363 -9.04385,-6.88939 z"
     id="path48" />
  <path
     style="fill:#0055d4;stroke-width:0.597555"
     d="m 144.42858,149.63501 c -4.35341,-0.0665 -9.7598,2.21312 -10.95089,6.72483 0.7036,4.68805 4.40658,8.70085 8.31675,11.12596 2.16117,1.03918 3.23955,-2.10119 1.62693,-3.40326 -1.75521,-1.58063 -1.62179,-3.89733 -0.063,-5.57757 1.27894,-2.83279 4.62912,-4.87247 4.90065,-8.03665 -0.89196,-1.05212 -2.6142,-0.72426 -3.83042,-0.83331 z"
     id="path49" />
  <path
     style="fill:#ffffff;stroke-width:0.211268"
     d="m 160.45733,57.598481 c -31.4447,0.103921 -62.89226,-0.0029 -94.334284,0.446881 -2.530297,0.151449 -5.134326,-0.05939 -7.618425,0.462973 -2.993876,2.547006 -5.579856,5.565137 -8.161861,8.504759 0.01321,89.592416 -0.02641,179.191756 0.01981,268.779846 2.29143,3.90637 4.403389,8.028 7.505777,11.36554 1.566922,1.36303 3.866045,0.9124 5.77021,1.2207 13.099323,0.66666 26.223236,0.33567 39.333763,0.47103 45.24587,0.0902 90.49186,0.0739 135.73779,0.1028 2.0944,-2.49858 4.10302,-5.1557 6.08798,-7.75665 0,-91.70637 0,-183.41275 0,-275.119115 -2.36016,-2.888047 -4.76153,-5.818313 -7.22808,-8.604616 -25.70423,0.04195 -51.40845,0.0839 -77.11268,0.125852 z m -18.83748,30.776164 c 5.67568,0.123277 11.3953,0.340177 17.02318,1.073932 5.10543,0.72915 9.73915,3.464805 13.1515,7.282448 4.19661,4.391455 7.76382,9.611975 9.03513,15.644795 2.07204,9.45166 1.90953,19.22262 2.28039,28.8594 0.25827,5.75085 0.18755,11.54206 0.91394,17.25757 1.65455,6.55733 4.90246,12.58337 8.13664,18.47691 2.36837,4.38595 5.38478,8.35638 8.17305,12.47008 2.12778,3.14369 3.2833,6.95763 5.99472,9.68448 2.98993,4.71915 4.87604,10.032 6.95175,15.19302 2.6465,7.01201 5.40203,14.18187 5.45881,21.7698 0.0617,4.63589 0.30036,9.30267 -0.23214,13.91801 -0.36519,1.38029 -0.35913,3.13341 -1.55314,4.08712 -1.55115,0.48766 -2.60769,-1.28468 -3.70564,-2.04363 -2.22083,-2.11547 -5.53123,-3.39339 -8.52024,-2.21061 -3.46705,1.19415 -6.54194,3.39136 -10.06574,4.37802 -0.38501,-0.34555 0.25707,-1.08888 0.3986,-1.49908 2.1361,-3.33579 4.64424,-6.55538 5.8177,-10.41979 3.21073,-9.75531 1.317,-20.36639 -2.2124,-29.75641 -2.14838,-5.3787 -4.57656,-10.78194 -8.26598,-15.29599 -0.4667,-0.44331 -1.36012,-1.56818 -2.02892,-0.90326 -0.0886,1.64899 1.05934,3.12512 1.62772,4.62144 4.3818,8.36403 7.68161,17.37825 9.08751,26.72003 0.96569,6.2278 -1.78408,12.22934 -4.44091,17.71559 -1.02925,1.76946 -1.82808,3.87247 -3.50308,5.1302 -1.07579,0.19203 -1.03031,-1.37499 -1.14918,-2.05119 -0.32051,-6.37556 1.10068,-12.73566 0.57748,-19.13029 -0.66028,-14.28563 -6.19891,-27.71438 -11.64849,-40.73894 -2.74905,-7.03855 -6.04645,-13.96572 -7.34407,-21.44946 -0.63552,-3.98158 -0.22799,-8.45015 -2.80179,-11.85599 -0.82215,-1.43691 -2.34358,-3.06202 -1.37336,-4.80421 1.63638,-4.52955 4.39986,-9.14002 3.42554,-14.14562 -1.00541,-5.26581 -4.57469,-10.45993 -9.84499,-12.12643 -3.72124,-1.17477 -7.51152,1.03871 -9.75008,3.92949 -2.8434,3.27939 -3.16611,7.82416 -5.12902,11.54875 -0.51586,0.86049 -1.58677,1.41319 -2.50179,0.76625 -1.70698,-0.74748 -2.80414,-2.4747 -2.84509,-4.32149 -0.36903,-4.72894 -3.26448,-9.11501 -7.22106,-11.642 -2.34417,-1.43053 -5.07429,0.21178 -6.85176,1.81393 -3.18883,2.85276 -4.92413,7.14339 -4.69654,11.41132 -0.0106,4.50581 1.61905,8.79788 3.73717,12.70785 0.57884,0.97651 0.85159,2.33591 -0.13245,3.14508 -1.94907,2.1857 -1.50914,5.4028 -1.866,8.09222 -0.1478,4.2351 -1.80668,8.1449 -3.31515,12.03966 -0.99924,3.29199 -1.59824,6.68423 -2.91001,9.88527 -4.71793,12.87801 -10.15867,25.72856 -11.88784,39.44284 -0.44323,6.17737 -0.34192,12.41511 0.6393,18.53516 0.0609,1.1337 0.38719,2.46655 0.19192,3.50683 -2.69116,-0.51339 -5.52275,-1.70863 -6.786975,-4.31035 -1.588373,-2.81325 -1.944255,-6.08156 -1.78965,-9.25782 -0.167055,-4.41526 0.394357,-8.80752 1.635532,-13.04807 1.559733,-6.35917 4.666803,-12.20499 6.380733,-18.51415 0.26988,-0.52525 -0.19554,-1.30613 -0.76914,-0.8232 -2.90642,2.41642 -3.95323,6.27353 -5.405073,9.61763 -2.641725,7.15601 -5.29446,14.45157 -6.04134,22.09149 -0.366465,3.99325 1.027905,7.81433 2.169615,11.56443 0.598035,1.63093 -1.30998,2.42088 -2.44503,3.02707 -3.9966,2.11231 -6.553222,5.96054 -9.637995,9.11336 -0.681555,0.81223 -2.2773,1.48988 -2.862097,0.21047 -1.74288,-3.94863 -1.635023,-8.45177 -1.546133,-12.70453 0.462638,-9.40808 2.430675,-18.80159 6.360893,-27.39549 1.365262,-3.77313 2.993392,-7.42161 4.975387,-10.91736 4.538295,-8.47179 9.710103,-16.57058 14.926923,-24.63417 3.91382,-6.42456 6.90631,-13.35189 10.12187,-20.13355 -0.41765,-13.63616 -1.24115,-27.28342 -0.82898,-40.92402 0.28138,-5.39978 2.83904,-10.3134 5.05639,-15.13535 2.91514,-6.110455 8.8049,-10.100043 14.8161,-12.759235 2.17805,-0.888975 4.41932,-1.979085 6.84378,-1.78026 z m -8.86416,42.839455 c 2.37645,1.76269 4.47711,3.97854 6.05821,6.48772 0.53659,0.83158 1.07917,2.10185 0.0108,2.79609 -3.00639,3.09617 -6.31283,6.0124 -9.80537,8.46473 -1.53585,-3.75442 -3.5014,-7.78459 -2.66396,-11.94652 0.95448,-2.70263 3.04559,-5.00369 5.67575,-6.17504 0.24153,0.12434 0.48306,0.24868 0.72459,0.37302 z m 24.89657,0.3462 c 3.10792,0.29106 5.64683,2.81615 6.99192,5.4723 1.74929,3.78037 0.99736,8.39829 -1.37971,11.73817 -1.18265,0.0298 -2.2194,-0.98702 -3.30108,-1.41531 -3.33316,-1.82968 -6.62381,-3.74398 -9.84002,-5.77687 0.39082,-3.01872 2.00283,-5.8161 3.88741,-8.13132 0.96236,-0.9844 2.25603,-1.82366 3.64148,-1.88697 z m -14.81886,13.44108 c 5.39487,0.33075 10.73816,2.28531 15.07305,5.52155 1.06429,0.93276 2.4558,2.043 2.56863,3.54934 -1.65936,0.96897 -3.77852,0.6526 -5.651,0.92635 -2.8234,0.0728 -5.43595,1.43145 -7.33951,3.47802 -0.94973,1.09554 -2.5086,2.08286 -2.63587,3.64236 0.39158,0.89181 1.72078,0.32438 2.46259,0.29875 4.57176,-1.03654 9.13311,-2.49193 13.21083,-4.83853 0.93366,-0.42348 1.2094,-1.44736 1.34931,-2.32724 1.26844,0.76629 2.51676,2.19419 2.49765,3.77146 -0.90606,1.54268 -2.63925,2.47209 -3.97049,3.64479 -4.99188,3.72089 -9.9741,7.52989 -15.35347,10.66116 -1.50061,0.95761 -3.10314,-0.44275 -4.39124,-1.14381 -4.29216,-2.99115 -8.03597,-6.84207 -10.9419,-11.17518 -1.38671,-2.05878 -2.09624,-4.81088 -0.60602,-7.01117 2.11354,-3.30663 5.52217,-5.5127 8.72205,-7.64738 1.47663,-1.0232 3.24404,-1.45333 5.00539,-1.35047 z M 99.484762,248.51466 c 2.889658,0.24877 4.641678,3.01085 6.281908,5.08404 5.69006,8.19291 10.61987,16.9072 15.81284,25.42657 3.42877,6.03002 7.38239,11.85984 9.86279,18.35877 1.33825,4.10977 1.69143,8.50946 1.62535,12.79188 -0.31749,4.02477 -2.78418,7.74187 -6.0855,9.98775 -3.58984,2.314 -8.24901,2.62697 -12.13056,0.93543 -7.14432,-2.48947 -13.87342,-5.98145 -20.83957,-8.89632 -6.040808,-2.00322 -12.457958,-2.45346 -18.735323,-2.95995 -2.096975,-0.14955 -3.810981,-1.54365 -4.863515,-3.29102 -2.09675,-2.98153 -2.527423,-6.85952 -1.372827,-10.27166 1.247579,-4.05296 4.042987,-7.948 3.158699,-12.38844 -0.740094,-4.57263 -3.922754,-8.63981 -3.736796,-13.31812 0.310699,-3.65159 3.797144,-5.76932 6.851977,-7.06455 4.80906,-2.00144 10.055565,-3.59715 13.735132,-7.50013 2.607195,-2.26068 4.82472,-5.29064 8.113095,-6.54929 0.757148,-0.23199 1.555178,-0.3769 2.3223,-0.34496 z m 79.480358,1.57585 c 2.9112,0.005 4.86843,2.60285 6.73621,4.49644 2.3107,2.54648 4.28715,5.71238 7.54787,7.1373 5.74201,-1.24936 10.24069,-5.60539 15.88716,-7.03042 1.68403,-0.50082 3.83204,-0.004 4.56454,1.80155 0.90541,2.29493 0.41568,4.87048 0.69982,7.27717 0.0524,4.08305 2.35347,7.68023 4.53944,10.96637 3.43487,4.99116 8.23098,8.8984 11.4843,14.01727 1.23183,1.84426 1.15046,4.51612 -0.53106,6.08757 -1.89795,1.96652 -3.86199,4.60833 -6.87528,4.6256 -1.83895,0.20036 -3.83469,-0.37173 -5.42664,0.83527 -7.94078,3.83511 -14.87166,9.47721 -21.04374,15.71961 -3.08784,3.10264 -6.82565,5.69838 -10.98299,7.03034 -3.41764,0.8318 -7.02567,-0.34207 -9.65641,-2.62557 -2.89866,-2.27979 -5.53098,-4.88572 -8.3265,-7.26934 -10.17675,0 -20.35349,0 -30.53023,0 0,-4.41889 0,-8.83777 0,-13.25665 4.35992,0.3336 8.75626,0.57303 13.12624,0.33465 6.80787,-0.68393 13.16445,-4.23129 17.49624,-9.50066 4.04004,-4.48519 6.58947,-10.40809 6.38814,-16.50093 0.0893,-5.4803 -0.73305,-10.93642 -1.43142,-16.33528 -0.0663,-2.49656 1.64589,-4.73797 3.29418,-6.47651 0.79404,-0.81725 1.89558,-1.34256 3.04013,-1.33378 z"
     id="path50" />
  <path
     style="fill:#ffffff;stroke-width:0.211268"
     d="m 132.26672,137.24348 c -1.25617,0.12979 -2.2527,1.24949 -2.0549,2.5447 -0.17392,0.75697 0.38717,1.47024 1.17559,1.15702 1.13435,-0.30684 2.87709,-0.79482 2.98167,-2.19685 -0.14207,-0.90169 -1.27801,-1.47338 -2.10236,-1.50487 z"
     id="path51" />
  <path
     style="fill:#ffffff;stroke-width:0.211268"
     d="m 158.43461,136.65424 c -1.35298,0.21301 -2.39403,2.0777 -1.26843,3.15787 0.81818,1.01755 2.15282,2.47051 3.5866,1.88656 0.94221,-1.08002 -0.0677,-2.64523 -0.59337,-3.70915 -0.38106,-0.60998 -0.91583,-1.36748 -1.7248,-1.33528 z"
     id="path52" />
  <path
     style="fill:#ffffff;stroke-width:0.211268"
     d="m 158.35786,98.838577 c -1.53779,-0.01785 -3.8601,0.171473 -4.0244,2.137023 -0.49369,3.17186 2.28504,5.43046 4.48236,7.19199 3.92054,3.00936 7.85485,6.17346 12.40956,8.16783 0.91445,-0.16437 0.61491,-1.53989 0.75965,-2.21254 0.0116,-2.31334 0.41665,-4.91861 -1.19845,-6.83949 -2.43923,-3.1308 -5.38486,-6.00955 -8.90484,-7.89312 -1.08653,-0.597112 -2.32321,-0.571822 -3.52388,-0.551693 z"
     id="path53" />
</svg>
